# xmcd
#
# Track frame offsets: 
#        150
#        23166
#        38891
#
# Disc length: 736 seconds
#
# Revision: 0
# Processed by: cddbd v1.5.2PL0 Copyright (c) Steve Scherf et al.
# Submitted via: ExactAudioCopy v0.95b3
#
DISCID=1b02de03
DTITLE=Joel Harrison - Free Country
DYEAR=2003
DGENRE=Country
TTITLE0=Tennessee Waltz
TTITLE1=Lonesome Road Blues
TTITLE2=Sing Me Back Home
EXTD=
EXTT0=
EXTT1=
EXTT2=
PLAYORDER=
